<mxfile host="app.diagrams.net" modified="2020-04-27T20:27:04.968Z" agent="5.0 (Macintosh; Intel Mac OS X 10_15_1) AppleWebKit/537.36 (KHTML, like Gecko) Chrome/80.0.3987.163 Safari/537.36" etag="zlYNdKQVxm-AsaHkEegq" version="13.0.2" type="github" pages="9">
  <diagram id="NLPp2RANzj0yKCLvoB4-" name="01 - update">
    <mxGraphModel dx="858" dy="422" grid="1" gridSize="10" guides="1" tooltips="1" connect="1" arrows="1" fold="1" page="1" pageScale="1" pageWidth="1920" pageHeight="1200" math="0" shadow="0">
      <root>
        <mxCell id="0" />
        <mxCell id="1" parent="0" />
        <mxCell id="a7sE-QDw8stch1_iIZKT-2" value="Tickets Service" style="rounded=0;whiteSpace=wrap;html=1;fontSize=19;fillColor=#f5f5f5;strokeColor=#666666;fontColor=#333333;fontStyle=1" vertex="1" parent="1">
          <mxGeometry x="700" y="180" width="180" height="25" as="geometry" />
        </mxCell>
        <mxCell id="a7sE-QDw8stch1_iIZKT-3" style="edgeStyle=orthogonalEdgeStyle;rounded=0;orthogonalLoop=1;jettySize=auto;html=1;exitX=0.5;exitY=1;exitDx=0;exitDy=0;fontSize=19;" edge="1" parent="1" source="a7sE-QDw8stch1_iIZKT-4" target="a7sE-QDw8stch1_iIZKT-17">
          <mxGeometry relative="1" as="geometry" />
        </mxCell>
        <mxCell id="a7sE-QDw8stch1_iIZKT-4" value="" style="rounded=0;whiteSpace=wrap;html=1;fontSize=22;fillColor=#f5f5f5;strokeColor=#666666;fontColor=#333333;fontStyle=1" vertex="1" parent="1">
          <mxGeometry x="700" y="205" width="180" height="130" as="geometry" />
        </mxCell>
        <mxCell id="a7sE-QDw8stch1_iIZKT-5" value="Orders Service" style="rounded=0;whiteSpace=wrap;html=1;fontSize=19;fillColor=#f5f5f5;strokeColor=#666666;fontColor=#333333;fontStyle=1" vertex="1" parent="1">
          <mxGeometry x="910" y="180" width="180" height="25" as="geometry" />
        </mxCell>
        <mxCell id="a7sE-QDw8stch1_iIZKT-6" value="" style="rounded=0;whiteSpace=wrap;html=1;fontSize=22;fillColor=#f5f5f5;strokeColor=#666666;fontColor=#333333;fontStyle=1" vertex="1" parent="1">
          <mxGeometry x="910" y="205" width="180" height="130" as="geometry" />
        </mxCell>
        <mxCell id="a7sE-QDw8stch1_iIZKT-7" value="Expiration Service" style="rounded=0;whiteSpace=wrap;html=1;fontSize=19;fillColor=#f5f5f5;strokeColor=#666666;fontColor=#333333;fontStyle=1" vertex="1" parent="1">
          <mxGeometry x="1340" y="180" width="180" height="25" as="geometry" />
        </mxCell>
        <mxCell id="a7sE-QDw8stch1_iIZKT-8" value="" style="rounded=0;whiteSpace=wrap;html=1;fontSize=22;fillColor=#f5f5f5;strokeColor=#666666;fontColor=#333333;fontStyle=1" vertex="1" parent="1">
          <mxGeometry x="1340" y="205" width="180" height="130" as="geometry" />
        </mxCell>
        <mxCell id="a7sE-QDw8stch1_iIZKT-9" value="Payments Service" style="rounded=0;whiteSpace=wrap;html=1;fontSize=19;fillColor=#f5f5f5;strokeColor=#666666;fontColor=#333333;fontStyle=1" vertex="1" parent="1">
          <mxGeometry x="1130" y="180" width="180" height="25" as="geometry" />
        </mxCell>
        <mxCell id="a7sE-QDw8stch1_iIZKT-10" value="" style="rounded=0;whiteSpace=wrap;html=1;fontSize=22;fillColor=#f5f5f5;strokeColor=#666666;fontColor=#333333;fontStyle=1" vertex="1" parent="1">
          <mxGeometry x="1130" y="205" width="180" height="130" as="geometry" />
        </mxCell>
        <mxCell id="a7sE-QDw8stch1_iIZKT-11" value="tickets" style="rounded=0;whiteSpace=wrap;html=1;fontSize=19;fillColor=#d5e8d4;strokeColor=#82b366;" vertex="1" parent="1">
          <mxGeometry x="730" y="220" width="120" height="40" as="geometry" />
        </mxCell>
        <mxCell id="a7sE-QDw8stch1_iIZKT-12" value="orders" style="rounded=0;whiteSpace=wrap;html=1;fontSize=19;fillColor=#d5e8d4;strokeColor=#82b366;" vertex="1" parent="1">
          <mxGeometry x="940" y="220" width="120" height="40" as="geometry" />
        </mxCell>
        <mxCell id="a7sE-QDw8stch1_iIZKT-13" value="tickets" style="rounded=0;whiteSpace=wrap;html=1;fontSize=19;fillColor=#e1d5e7;strokeColor=#9673a6;" vertex="1" parent="1">
          <mxGeometry x="940" y="270" width="120" height="40" as="geometry" />
        </mxCell>
        <mxCell id="a7sE-QDw8stch1_iIZKT-14" value="charges" style="rounded=0;whiteSpace=wrap;html=1;fontSize=19;fillColor=#d5e8d4;strokeColor=#82b366;" vertex="1" parent="1">
          <mxGeometry x="1160" y="220" width="120" height="40" as="geometry" />
        </mxCell>
        <mxCell id="a7sE-QDw8stch1_iIZKT-15" value="orders" style="rounded=0;whiteSpace=wrap;html=1;fontSize=19;fillColor=#e1d5e7;strokeColor=#9673a6;" vertex="1" parent="1">
          <mxGeometry x="1160" y="270" width="120" height="40" as="geometry" />
        </mxCell>
        <mxCell id="a7sE-QDw8stch1_iIZKT-16" style="edgeStyle=orthogonalEdgeStyle;rounded=0;orthogonalLoop=1;jettySize=auto;html=1;exitX=1;exitY=0.5;exitDx=0;exitDy=0;fontSize=23;" edge="1" parent="1" source="a7sE-QDw8stch1_iIZKT-17" target="a7sE-QDw8stch1_iIZKT-6">
          <mxGeometry relative="1" as="geometry" />
        </mxCell>
        <mxCell id="a7sE-QDw8stch1_iIZKT-17" value="&lt;span&gt;ticket:updated&lt;/span&gt;" style="rounded=0;whiteSpace=wrap;html=1;fontSize=17;fillColor=#f8cecc;strokeColor=#b85450;fontStyle=0" vertex="1" parent="1">
          <mxGeometry x="715" y="360" width="150" height="40" as="geometry" />
        </mxCell>
        <mxCell id="a7sE-QDw8stch1_iIZKT-18" value="Events Published by Each Service" style="text;html=1;strokeColor=none;fillColor=none;align=center;verticalAlign=middle;whiteSpace=wrap;rounded=0;fontSize=20;fontStyle=1" vertex="1" parent="1">
          <mxGeometry x="925" y="140" width="360" height="20" as="geometry" />
        </mxCell>
        <mxCell id="a7sE-QDw8stch1_iIZKT-19" value="Orders service needs to know when the price of a ticket has changed" style="rounded=0;whiteSpace=wrap;html=1;fontSize=14;" vertex="1" parent="1">
          <mxGeometry x="910" y="380" width="280" height="40" as="geometry" />
        </mxCell>
        <mxCell id="a7sE-QDw8stch1_iIZKT-20" value="Orders service needs to know when a ticket has successfully been reserved" style="rounded=0;whiteSpace=wrap;html=1;fontSize=14;" vertex="1" parent="1">
          <mxGeometry x="910" y="420" width="280" height="40" as="geometry" />
        </mxCell>
      </root>
    </mxGraphModel>
  </diagram>
  <diagram id="RoYeE43Ng7Ssrako5IQ8" name="02 - res">
    <mxGraphModel dx="715" dy="352" grid="1" gridSize="10" guides="1" tooltips="1" connect="1" arrows="1" fold="1" page="1" pageScale="1" pageWidth="1920" pageHeight="1200" math="0" shadow="0">
      <root>
        <mxCell id="lzI0lwZ4IiF5Vw7tlCKX-0" />
        <mxCell id="lzI0lwZ4IiF5Vw7tlCKX-1" parent="lzI0lwZ4IiF5Vw7tlCKX-0" />
        <mxCell id="YxjDFboH5t-rR9UKZJK_-0" value="Orders Service" style="rounded=0;whiteSpace=wrap;html=1;fontSize=19;fillColor=#f5f5f5;strokeColor=#666666;fontColor=#333333;fontStyle=1" vertex="1" parent="lzI0lwZ4IiF5Vw7tlCKX-1">
          <mxGeometry x="490" y="430" width="320" height="25" as="geometry" />
        </mxCell>
        <mxCell id="YxjDFboH5t-rR9UKZJK_-1" value="" style="rounded=0;whiteSpace=wrap;html=1;fontSize=22;fillColor=#f5f5f5;strokeColor=#666666;fontColor=#333333;fontStyle=1" vertex="1" parent="lzI0lwZ4IiF5Vw7tlCKX-1">
          <mxGeometry x="490" y="455" width="320" height="215" as="geometry" />
        </mxCell>
        <mxCell id="YxjDFboH5t-rR9UKZJK_-2" value="orders" style="rounded=0;whiteSpace=wrap;html=1;fontSize=15;fillColor=#dae8fc;strokeColor=#6c8ebf;" vertex="1" parent="lzI0lwZ4IiF5Vw7tlCKX-1">
          <mxGeometry x="510" y="470" width="280" height="20" as="geometry" />
        </mxCell>
        <mxCell id="YxjDFboH5t-rR9UKZJK_-3" value="tickets" style="rounded=0;whiteSpace=wrap;html=1;fontSize=15;fillColor=#e1d5e7;strokeColor=#9673a6;" vertex="1" parent="lzI0lwZ4IiF5Vw7tlCKX-1">
          <mxGeometry x="510" y="570" width="280" height="20" as="geometry" />
        </mxCell>
        <mxCell id="YxjDFboH5t-rR9UKZJK_-7" style="edgeStyle=orthogonalEdgeStyle;rounded=0;orthogonalLoop=1;jettySize=auto;html=1;exitX=1;exitY=0.5;exitDx=0;exitDy=0;fontSize=15;" edge="1" parent="lzI0lwZ4IiF5Vw7tlCKX-1" source="YxjDFboH5t-rR9UKZJK_-4" target="YxjDFboH5t-rR9UKZJK_-5">
          <mxGeometry relative="1" as="geometry" />
        </mxCell>
        <mxCell id="YxjDFboH5t-rR9UKZJK_-4" value="Request to Create an Order for Ticket &#39;ABC&#39;" style="rounded=0;whiteSpace=wrap;html=1;fillColor=#dae8fc;strokeColor=#6c8ebf;fontStyle=1" vertex="1" parent="lzI0lwZ4IiF5Vw7tlCKX-1">
          <mxGeometry x="280" y="490" width="170" height="60" as="geometry" />
        </mxCell>
        <mxCell id="YxjDFboH5t-rR9UKZJK_-5" value="{ id: &#39;123&#39;, userId: &#39;b&#39;, expiresAt: &#39;...&#39;, status: Created, ticket: Ref }" style="rounded=0;whiteSpace=wrap;html=1;fontSize=15;" vertex="1" parent="lzI0lwZ4IiF5Vw7tlCKX-1">
          <mxGeometry x="510" y="490" width="280" height="60" as="geometry" />
        </mxCell>
        <mxCell id="YxjDFboH5t-rR9UKZJK_-6" value="{ id: &#39;ABC&#39;, title: &#39;concert&#39;, price: 20 }" style="rounded=0;whiteSpace=wrap;html=1;fontSize=15;" vertex="1" parent="lzI0lwZ4IiF5Vw7tlCKX-1">
          <mxGeometry x="510" y="590" width="280" height="60" as="geometry" />
        </mxCell>
        <mxCell id="9c2D1d3vblzRfMhyQFN5-0" value="Ticket should be &lt;i style=&quot;font-size: 17px&quot;&gt;locked!&lt;/i&gt;" style="text;html=1;strokeColor=none;fillColor=none;align=center;verticalAlign=middle;whiteSpace=wrap;rounded=0;fontSize=17;fontStyle=1" vertex="1" parent="lzI0lwZ4IiF5Vw7tlCKX-1">
          <mxGeometry x="545" y="680" width="210" height="40" as="geometry" />
        </mxCell>
      </root>
    </mxGraphModel>
  </diagram>
  <diagram id="6Jf69ZEV0wpA5ot5r4Jj" name="03 - race">
    <mxGraphModel dx="770" dy="379" grid="1" gridSize="10" guides="1" tooltips="1" connect="1" arrows="1" fold="1" page="1" pageScale="1" pageWidth="1920" pageHeight="1200" math="0" shadow="0">
      <root>
        <mxCell id="iHQCS6ixgauzAYLSUbZY-0" />
        <mxCell id="iHQCS6ixgauzAYLSUbZY-1" parent="iHQCS6ixgauzAYLSUbZY-0" />
        <mxCell id="_GzqMNcqzfoMrPJSCGzO-0" value="Tickets Service" style="rounded=0;whiteSpace=wrap;html=1;fontSize=19;fillColor=#f5f5f5;strokeColor=#666666;fontColor=#333333;fontStyle=1" vertex="1" parent="iHQCS6ixgauzAYLSUbZY-1">
          <mxGeometry x="730" y="210" width="180" height="25" as="geometry" />
        </mxCell>
        <mxCell id="_GzqMNcqzfoMrPJSCGzO-2" value="" style="rounded=0;whiteSpace=wrap;html=1;fontSize=22;fillColor=#f5f5f5;strokeColor=#666666;fontColor=#333333;fontStyle=1" vertex="1" parent="iHQCS6ixgauzAYLSUbZY-1">
          <mxGeometry x="730" y="235" width="180" height="130" as="geometry" />
        </mxCell>
        <mxCell id="_GzqMNcqzfoMrPJSCGzO-3" value="tickets" style="rounded=0;whiteSpace=wrap;html=1;fontSize=19;fillColor=#d5e8d4;strokeColor=#82b366;" vertex="1" parent="iHQCS6ixgauzAYLSUbZY-1">
          <mxGeometry x="760" y="250" width="120" height="40" as="geometry" />
        </mxCell>
        <mxCell id="EsY-7lRfMBMIzEp2uL8c-0" value="Orders Service" style="rounded=0;whiteSpace=wrap;html=1;fontSize=19;fillColor=#f5f5f5;strokeColor=#666666;fontColor=#333333;fontStyle=1" vertex="1" parent="iHQCS6ixgauzAYLSUbZY-1">
          <mxGeometry x="730" y="375" width="180" height="25" as="geometry" />
        </mxCell>
        <mxCell id="EsY-7lRfMBMIzEp2uL8c-2" value="" style="rounded=0;whiteSpace=wrap;html=1;fontSize=22;fillColor=#f5f5f5;strokeColor=#666666;fontColor=#333333;fontStyle=1" vertex="1" parent="iHQCS6ixgauzAYLSUbZY-1">
          <mxGeometry x="730" y="400" width="180" height="130" as="geometry" />
        </mxCell>
        <mxCell id="EsY-7lRfMBMIzEp2uL8c-3" value="orders" style="rounded=0;whiteSpace=wrap;html=1;fontSize=19;fillColor=#d5e8d4;strokeColor=#82b366;" vertex="1" parent="iHQCS6ixgauzAYLSUbZY-1">
          <mxGeometry x="760" y="415" width="120" height="40" as="geometry" />
        </mxCell>
        <mxCell id="EsY-7lRfMBMIzEp2uL8c-4" value="tickets" style="rounded=0;whiteSpace=wrap;html=1;fontSize=19;fillColor=#e1d5e7;strokeColor=#9673a6;" vertex="1" parent="iHQCS6ixgauzAYLSUbZY-1">
          <mxGeometry x="760" y="465" width="120" height="40" as="geometry" />
        </mxCell>
        <mxCell id="EsY-7lRfMBMIzEp2uL8c-12" style="edgeStyle=orthogonalEdgeStyle;rounded=0;orthogonalLoop=1;jettySize=auto;html=1;exitX=1;exitY=0.5;exitDx=0;exitDy=0;fontSize=17;" edge="1" parent="iHQCS6ixgauzAYLSUbZY-1" source="EsY-7lRfMBMIzEp2uL8c-10" target="_GzqMNcqzfoMrPJSCGzO-3">
          <mxGeometry relative="1" as="geometry" />
        </mxCell>
        <mxCell id="EsY-7lRfMBMIzEp2uL8c-14" style="edgeStyle=orthogonalEdgeStyle;rounded=0;orthogonalLoop=1;jettySize=auto;html=1;exitX=1;exitY=0.5;exitDx=0;exitDy=0;entryX=0;entryY=0.25;entryDx=0;entryDy=0;fontSize=17;" edge="1" parent="iHQCS6ixgauzAYLSUbZY-1" source="EsY-7lRfMBMIzEp2uL8c-10" target="EsY-7lRfMBMIzEp2uL8c-3">
          <mxGeometry relative="1" as="geometry" />
        </mxCell>
        <mxCell id="EsY-7lRfMBMIzEp2uL8c-10" value="Seller" style="rounded=0;whiteSpace=wrap;html=1;fontSize=17;fillColor=#dae8fc;strokeColor=#6c8ebf;fontStyle=1" vertex="1" parent="iHQCS6ixgauzAYLSUbZY-1">
          <mxGeometry x="520" y="240" width="120" height="60" as="geometry" />
        </mxCell>
        <mxCell id="EsY-7lRfMBMIzEp2uL8c-13" style="edgeStyle=orthogonalEdgeStyle;rounded=0;orthogonalLoop=1;jettySize=auto;html=1;exitX=1;exitY=0.5;exitDx=0;exitDy=0;fontSize=17;" edge="1" parent="iHQCS6ixgauzAYLSUbZY-1" source="EsY-7lRfMBMIzEp2uL8c-11" target="EsY-7lRfMBMIzEp2uL8c-3">
          <mxGeometry relative="1" as="geometry" />
        </mxCell>
        <mxCell id="EsY-7lRfMBMIzEp2uL8c-11" value="Buyer" style="rounded=0;whiteSpace=wrap;html=1;fontSize=17;fillColor=#ffe6cc;strokeColor=#d79b00;fontStyle=1" vertex="1" parent="iHQCS6ixgauzAYLSUbZY-1">
          <mxGeometry x="520" y="405" width="120" height="60" as="geometry" />
        </mxCell>
      </root>
    </mxGraphModel>
  </diagram>
  <diagram name="04 - race" id="wWjlULPujiqGiv402T_2">
    <mxGraphModel dx="834" dy="411" grid="1" gridSize="10" guides="1" tooltips="1" connect="1" arrows="1" fold="1" page="1" pageScale="1" pageWidth="1920" pageHeight="1200" math="0" shadow="0">
      <root>
        <mxCell id="pQ5pyipGuvEB7tMVYSXN-0" />
        <mxCell id="pQ5pyipGuvEB7tMVYSXN-1" parent="pQ5pyipGuvEB7tMVYSXN-0" />
        <mxCell id="pQ5pyipGuvEB7tMVYSXN-2" value="Tickets Service" style="rounded=0;whiteSpace=wrap;html=1;fontSize=19;fillColor=#f5f5f5;strokeColor=#666666;fontColor=#333333;fontStyle=1" vertex="1" parent="pQ5pyipGuvEB7tMVYSXN-1">
          <mxGeometry x="730" y="210" width="180" height="25" as="geometry" />
        </mxCell>
        <mxCell id="pQ5pyipGuvEB7tMVYSXN-3" value="" style="rounded=0;whiteSpace=wrap;html=1;fontSize=22;fillColor=#f5f5f5;strokeColor=#666666;fontColor=#333333;fontStyle=1" vertex="1" parent="pQ5pyipGuvEB7tMVYSXN-1">
          <mxGeometry x="730" y="235" width="180" height="130" as="geometry" />
        </mxCell>
        <mxCell id="pQ5pyipGuvEB7tMVYSXN-4" value="tickets" style="rounded=0;whiteSpace=wrap;html=1;fontSize=19;fillColor=#d5e8d4;strokeColor=#82b366;" vertex="1" parent="pQ5pyipGuvEB7tMVYSXN-1">
          <mxGeometry x="760" y="250" width="120" height="40" as="geometry" />
        </mxCell>
        <mxCell id="pQ5pyipGuvEB7tMVYSXN-5" value="Orders Service" style="rounded=0;whiteSpace=wrap;html=1;fontSize=19;fillColor=#f5f5f5;strokeColor=#666666;fontColor=#333333;fontStyle=1" vertex="1" parent="pQ5pyipGuvEB7tMVYSXN-1">
          <mxGeometry x="960" y="210" width="180" height="25" as="geometry" />
        </mxCell>
        <mxCell id="pQ5pyipGuvEB7tMVYSXN-6" value="" style="rounded=0;whiteSpace=wrap;html=1;fontSize=22;fillColor=#f5f5f5;strokeColor=#666666;fontColor=#333333;fontStyle=1" vertex="1" parent="pQ5pyipGuvEB7tMVYSXN-1">
          <mxGeometry x="960" y="235" width="180" height="130" as="geometry" />
        </mxCell>
        <mxCell id="pQ5pyipGuvEB7tMVYSXN-7" value="orders" style="rounded=0;whiteSpace=wrap;html=1;fontSize=19;fillColor=#d5e8d4;strokeColor=#82b366;" vertex="1" parent="pQ5pyipGuvEB7tMVYSXN-1">
          <mxGeometry x="990" y="250" width="120" height="40" as="geometry" />
        </mxCell>
        <mxCell id="pQ5pyipGuvEB7tMVYSXN-8" value="tickets" style="rounded=0;whiteSpace=wrap;html=1;fontSize=19;fillColor=#e1d5e7;strokeColor=#9673a6;" vertex="1" parent="pQ5pyipGuvEB7tMVYSXN-1">
          <mxGeometry x="990" y="300" width="120" height="40" as="geometry" />
        </mxCell>
        <mxCell id="PWTIB0P2LlGIKhvoODFG-0" value="Request to create an order for ticket XYZ" style="rounded=0;whiteSpace=wrap;html=1;fontSize=12;fillColor=#dae8fc;strokeColor=#6c8ebf;" vertex="1" parent="pQ5pyipGuvEB7tMVYSXN-1">
          <mxGeometry x="970" y="380" width="160" height="40" as="geometry" />
        </mxCell>
        <mxCell id="PWTIB0P2LlGIKhvoODFG-1" value="Request to create an order for ticket XYZ" style="rounded=0;whiteSpace=wrap;html=1;fontSize=12;fillColor=#dae8fc;strokeColor=#6c8ebf;" vertex="1" parent="pQ5pyipGuvEB7tMVYSXN-1">
          <mxGeometry x="740" y="380" width="160" height="40" as="geometry" />
        </mxCell>
      </root>
    </mxGraphModel>
  </diagram>
  <diagram id="9RgLAYgRUPjVGuz0_Y6i" name="08 - notes">
    <mxGraphModel dx="613" dy="302" grid="1" gridSize="10" guides="1" tooltips="1" connect="1" arrows="1" fold="1" page="1" pageScale="1" pageWidth="1920" pageHeight="1200" math="0" shadow="0">
      <root>
        <mxCell id="GSbxUhkFhd-02AgeG37b-0" />
        <mxCell id="GSbxUhkFhd-02AgeG37b-1" parent="GSbxUhkFhd-02AgeG37b-0" />
        <mxCell id="GSbxUhkFhd-02AgeG37b-4" style="edgeStyle=orthogonalEdgeStyle;rounded=0;orthogonalLoop=1;jettySize=auto;html=1;exitX=0.5;exitY=1;exitDx=0;exitDy=0;fontSize=15;" edge="1" parent="GSbxUhkFhd-02AgeG37b-1" source="GSbxUhkFhd-02AgeG37b-2" target="GSbxUhkFhd-02AgeG37b-3">
          <mxGeometry relative="1" as="geometry" />
        </mxCell>
        <mxCell id="GSbxUhkFhd-02AgeG37b-2" value="The issue we&#39;re about to look at &lt;i&gt;is not &lt;/i&gt;particular to microservices" style="rounded=0;whiteSpace=wrap;html=1;fontSize=15;align=center;fillColor=#dae8fc;strokeColor=#6c8ebf;" vertex="1" parent="GSbxUhkFhd-02AgeG37b-1">
          <mxGeometry x="620" y="250" width="410" height="60" as="geometry" />
        </mxCell>
        <mxCell id="GSbxUhkFhd-02AgeG37b-6" style="edgeStyle=orthogonalEdgeStyle;rounded=0;orthogonalLoop=1;jettySize=auto;html=1;exitX=0.5;exitY=1;exitDx=0;exitDy=0;fontSize=15;" edge="1" parent="GSbxUhkFhd-02AgeG37b-1" source="GSbxUhkFhd-02AgeG37b-3" target="GSbxUhkFhd-02AgeG37b-5">
          <mxGeometry relative="1" as="geometry" />
        </mxCell>
        <mxCell id="GSbxUhkFhd-02AgeG37b-3" value="It is an issue that is &lt;i&gt;likely&lt;/i&gt; to happen in the app we are building" style="rounded=0;whiteSpace=wrap;html=1;fontSize=15;align=center;fillColor=#dae8fc;strokeColor=#6c8ebf;" vertex="1" parent="GSbxUhkFhd-02AgeG37b-1">
          <mxGeometry x="620" y="345" width="410" height="60" as="geometry" />
        </mxCell>
        <mxCell id="GSbxUhkFhd-02AgeG37b-5" value="Its important for you to understand how to fix this with a microservices approach" style="rounded=0;whiteSpace=wrap;html=1;fontSize=15;align=center;fillColor=#dae8fc;strokeColor=#6c8ebf;" vertex="1" parent="GSbxUhkFhd-02AgeG37b-1">
          <mxGeometry x="620" y="440" width="410" height="60" as="geometry" />
        </mxCell>
      </root>
    </mxGraphModel>
  </diagram>
  <diagram id="bldarbSIqXOkE7tWOWkD" name="05 - race">
    <mxGraphModel dx="715" dy="352" grid="1" gridSize="10" guides="1" tooltips="1" connect="1" arrows="1" fold="1" page="1" pageScale="1" pageWidth="1920" pageHeight="1200" math="0" shadow="0">
      <root>
        <mxCell id="duq-pEWKDF7M9AKMIPE8-0" />
        <mxCell id="duq-pEWKDF7M9AKMIPE8-1" parent="duq-pEWKDF7M9AKMIPE8-0" />
        <mxCell id="qUrMpUMIDRMDb5-X3uD3-0" value="Orders Service" style="rounded=0;whiteSpace=wrap;html=1;fontSize=19;fillColor=#f5f5f5;strokeColor=#666666;fontColor=#333333;fontStyle=1" vertex="1" parent="duq-pEWKDF7M9AKMIPE8-1">
          <mxGeometry x="680" y="200" width="220" height="25" as="geometry" />
        </mxCell>
        <mxCell id="qUrMpUMIDRMDb5-X3uD3-1" value="" style="rounded=0;whiteSpace=wrap;html=1;fontSize=22;fillColor=#f5f5f5;strokeColor=#666666;fontColor=#333333;fontStyle=1" vertex="1" parent="duq-pEWKDF7M9AKMIPE8-1">
          <mxGeometry x="680" y="225" width="220" height="275" as="geometry" />
        </mxCell>
        <mxCell id="qUrMpUMIDRMDb5-X3uD3-11" style="edgeStyle=orthogonalEdgeStyle;rounded=0;orthogonalLoop=1;jettySize=auto;html=1;exitX=1;exitY=0.5;exitDx=0;exitDy=0;fontSize=12;" edge="1" parent="duq-pEWKDF7M9AKMIPE8-1" source="qUrMpUMIDRMDb5-X3uD3-4" target="qUrMpUMIDRMDb5-X3uD3-8">
          <mxGeometry relative="1" as="geometry" />
        </mxCell>
        <mxCell id="qUrMpUMIDRMDb5-X3uD3-4" value="Request to create an order for ticket XYZ" style="rounded=0;whiteSpace=wrap;html=1;fontSize=12;fillColor=#dae8fc;strokeColor=#6c8ebf;" vertex="1" parent="duq-pEWKDF7M9AKMIPE8-1">
          <mxGeometry x="490" y="240" width="160" height="40" as="geometry" />
        </mxCell>
        <mxCell id="qUrMpUMIDRMDb5-X3uD3-6" value="Mongo DB" style="rounded=0;whiteSpace=wrap;html=1;fontSize=19;fillColor=#f5f5f5;strokeColor=#666666;fontColor=#333333;fontStyle=1" vertex="1" parent="duq-pEWKDF7M9AKMIPE8-1">
          <mxGeometry x="950" y="200" width="220" height="25" as="geometry" />
        </mxCell>
        <mxCell id="qUrMpUMIDRMDb5-X3uD3-7" value="" style="rounded=0;whiteSpace=wrap;html=1;fontSize=22;fillColor=#f5f5f5;strokeColor=#666666;fontColor=#333333;fontStyle=1" vertex="1" parent="duq-pEWKDF7M9AKMIPE8-1">
          <mxGeometry x="950" y="225" width="220" height="275" as="geometry" />
        </mxCell>
        <mxCell id="qUrMpUMIDRMDb5-X3uD3-10" style="edgeStyle=orthogonalEdgeStyle;rounded=0;orthogonalLoop=1;jettySize=auto;html=1;exitX=0.5;exitY=1;exitDx=0;exitDy=0;fontSize=12;" edge="1" parent="duq-pEWKDF7M9AKMIPE8-1" source="qUrMpUMIDRMDb5-X3uD3-8" target="qUrMpUMIDRMDb5-X3uD3-9">
          <mxGeometry relative="1" as="geometry" />
        </mxCell>
        <mxCell id="qUrMpUMIDRMDb5-X3uD3-8" value="Is the ticket reserved?" style="rounded=0;whiteSpace=wrap;html=1;fontSize=12;" vertex="1" parent="duq-pEWKDF7M9AKMIPE8-1">
          <mxGeometry x="690" y="240" width="200" height="40" as="geometry" />
        </mxCell>
        <mxCell id="qUrMpUMIDRMDb5-X3uD3-16" style="edgeStyle=orthogonalEdgeStyle;rounded=0;orthogonalLoop=1;jettySize=auto;html=1;exitX=1;exitY=0.5;exitDx=0;exitDy=0;entryX=0;entryY=0.25;entryDx=0;entryDy=0;fontSize=16;" edge="1" parent="duq-pEWKDF7M9AKMIPE8-1" source="qUrMpUMIDRMDb5-X3uD3-9" target="qUrMpUMIDRMDb5-X3uD3-14">
          <mxGeometry relative="1" as="geometry" />
        </mxCell>
        <mxCell id="qUrMpUMIDRMDb5-X3uD3-19" style="edgeStyle=orthogonalEdgeStyle;rounded=0;orthogonalLoop=1;jettySize=auto;html=1;exitX=0.5;exitY=1;exitDx=0;exitDy=0;fontSize=16;" edge="1" parent="duq-pEWKDF7M9AKMIPE8-1" source="qUrMpUMIDRMDb5-X3uD3-9" target="qUrMpUMIDRMDb5-X3uD3-17">
          <mxGeometry relative="1" as="geometry" />
        </mxCell>
        <mxCell id="qUrMpUMIDRMDb5-X3uD3-9" value="Check to see if there is an order that references ticket XYZ and has a status that isn&#39;t &#39;cancelled&#39;" style="rounded=0;whiteSpace=wrap;html=1;fontSize=12;" vertex="1" parent="duq-pEWKDF7M9AKMIPE8-1">
          <mxGeometry x="690" y="300" width="200" height="50" as="geometry" />
        </mxCell>
        <mxCell id="qUrMpUMIDRMDb5-X3uD3-18" style="edgeStyle=orthogonalEdgeStyle;rounded=0;orthogonalLoop=1;jettySize=auto;html=1;exitX=0;exitY=0.75;exitDx=0;exitDy=0;entryX=1;entryY=0.5;entryDx=0;entryDy=0;fontSize=16;" edge="1" parent="duq-pEWKDF7M9AKMIPE8-1" source="qUrMpUMIDRMDb5-X3uD3-14" target="qUrMpUMIDRMDb5-X3uD3-17">
          <mxGeometry relative="1" as="geometry" />
        </mxCell>
        <mxCell id="qUrMpUMIDRMDb5-X3uD3-14" value="Orders Collection" style="rounded=0;whiteSpace=wrap;html=1;fontSize=16;fillColor=#d5e8d4;strokeColor=#82b366;fontStyle=1" vertex="1" parent="duq-pEWKDF7M9AKMIPE8-1">
          <mxGeometry x="960" y="300" width="200" height="150" as="geometry" />
        </mxCell>
        <mxCell id="qUrMpUMIDRMDb5-X3uD3-17" value="Ticket isn&#39;t reserved? Great!&amp;nbsp; Create a new order." style="rounded=0;whiteSpace=wrap;html=1;fontSize=12;" vertex="1" parent="duq-pEWKDF7M9AKMIPE8-1">
          <mxGeometry x="690" y="400" width="200" height="50" as="geometry" />
        </mxCell>
        <mxCell id="qUrMpUMIDRMDb5-X3uD3-20" value="Wait for query..." style="text;html=1;strokeColor=none;fillColor=none;align=left;verticalAlign=middle;whiteSpace=wrap;rounded=0;fontSize=13;fontStyle=2" vertex="1" parent="duq-pEWKDF7M9AKMIPE8-1">
          <mxGeometry x="790" y="355" width="110" height="40" as="geometry" />
        </mxCell>
      </root>
    </mxGraphModel>
  </diagram>
  <diagram name="06 - wait" id="_SLL7sMqOFokEsqjQlII">
    <mxGraphModel dx="683" dy="336" grid="1" gridSize="10" guides="1" tooltips="1" connect="1" arrows="1" fold="1" page="1" pageScale="1" pageWidth="1920" pageHeight="1200" math="0" shadow="0">
      <root>
        <mxCell id="32OjlMzEmUoog5Jo0LFi-0" />
        <mxCell id="32OjlMzEmUoog5Jo0LFi-1" parent="32OjlMzEmUoog5Jo0LFi-0" />
        <mxCell id="32OjlMzEmUoog5Jo0LFi-2" value="Orders Service" style="rounded=0;whiteSpace=wrap;html=1;fontSize=19;fillColor=#f5f5f5;strokeColor=#666666;fontColor=#333333;fontStyle=1" vertex="1" parent="32OjlMzEmUoog5Jo0LFi-1">
          <mxGeometry x="680" y="200" width="220" height="25" as="geometry" />
        </mxCell>
        <mxCell id="32OjlMzEmUoog5Jo0LFi-3" value="" style="rounded=0;whiteSpace=wrap;html=1;fontSize=22;fillColor=#f5f5f5;strokeColor=#666666;fontColor=#333333;fontStyle=1" vertex="1" parent="32OjlMzEmUoog5Jo0LFi-1">
          <mxGeometry x="680" y="225" width="220" height="275" as="geometry" />
        </mxCell>
        <mxCell id="32OjlMzEmUoog5Jo0LFi-4" style="edgeStyle=orthogonalEdgeStyle;rounded=0;orthogonalLoop=1;jettySize=auto;html=1;exitX=1;exitY=0.5;exitDx=0;exitDy=0;fontSize=12;" edge="1" parent="32OjlMzEmUoog5Jo0LFi-1" source="32OjlMzEmUoog5Jo0LFi-5" target="32OjlMzEmUoog5Jo0LFi-9">
          <mxGeometry relative="1" as="geometry" />
        </mxCell>
        <mxCell id="32OjlMzEmUoog5Jo0LFi-5" value="Request to create an order for ticket XYZ" style="rounded=0;whiteSpace=wrap;html=1;fontSize=12;fillColor=#dae8fc;strokeColor=#6c8ebf;" vertex="1" parent="32OjlMzEmUoog5Jo0LFi-1">
          <mxGeometry x="490" y="240" width="160" height="40" as="geometry" />
        </mxCell>
        <mxCell id="32OjlMzEmUoog5Jo0LFi-6" value="Mongo DB" style="rounded=0;whiteSpace=wrap;html=1;fontSize=19;fillColor=#f5f5f5;strokeColor=#666666;fontColor=#333333;fontStyle=1" vertex="1" parent="32OjlMzEmUoog5Jo0LFi-1">
          <mxGeometry x="950" y="200" width="220" height="25" as="geometry" />
        </mxCell>
        <mxCell id="32OjlMzEmUoog5Jo0LFi-7" value="" style="rounded=0;whiteSpace=wrap;html=1;fontSize=22;fillColor=#f5f5f5;strokeColor=#666666;fontColor=#333333;fontStyle=1" vertex="1" parent="32OjlMzEmUoog5Jo0LFi-1">
          <mxGeometry x="950" y="225" width="220" height="275" as="geometry" />
        </mxCell>
        <mxCell id="32OjlMzEmUoog5Jo0LFi-8" style="edgeStyle=orthogonalEdgeStyle;rounded=0;orthogonalLoop=1;jettySize=auto;html=1;exitX=0.5;exitY=1;exitDx=0;exitDy=0;fontSize=12;" edge="1" parent="32OjlMzEmUoog5Jo0LFi-1" source="32OjlMzEmUoog5Jo0LFi-9" target="32OjlMzEmUoog5Jo0LFi-12">
          <mxGeometry relative="1" as="geometry" />
        </mxCell>
        <mxCell id="32OjlMzEmUoog5Jo0LFi-9" value="Is the ticket reserved?" style="rounded=0;whiteSpace=wrap;html=1;fontSize=12;" vertex="1" parent="32OjlMzEmUoog5Jo0LFi-1">
          <mxGeometry x="690" y="240" width="200" height="40" as="geometry" />
        </mxCell>
        <mxCell id="32OjlMzEmUoog5Jo0LFi-10" style="edgeStyle=orthogonalEdgeStyle;rounded=0;orthogonalLoop=1;jettySize=auto;html=1;exitX=1;exitY=0.5;exitDx=0;exitDy=0;entryX=0;entryY=0.25;entryDx=0;entryDy=0;fontSize=16;" edge="1" parent="32OjlMzEmUoog5Jo0LFi-1" source="32OjlMzEmUoog5Jo0LFi-12" target="32OjlMzEmUoog5Jo0LFi-14">
          <mxGeometry relative="1" as="geometry" />
        </mxCell>
        <mxCell id="32OjlMzEmUoog5Jo0LFi-11" style="edgeStyle=orthogonalEdgeStyle;rounded=0;orthogonalLoop=1;jettySize=auto;html=1;exitX=0.5;exitY=1;exitDx=0;exitDy=0;fontSize=16;" edge="1" parent="32OjlMzEmUoog5Jo0LFi-1" source="32OjlMzEmUoog5Jo0LFi-12" target="32OjlMzEmUoog5Jo0LFi-15">
          <mxGeometry relative="1" as="geometry" />
        </mxCell>
        <mxCell id="32OjlMzEmUoog5Jo0LFi-12" value="Check to see if there is an order that references ticket XYZ and has a status that isn&#39;t &#39;cancelled&#39;" style="rounded=0;whiteSpace=wrap;html=1;fontSize=12;" vertex="1" parent="32OjlMzEmUoog5Jo0LFi-1">
          <mxGeometry x="690" y="300" width="200" height="50" as="geometry" />
        </mxCell>
        <mxCell id="32OjlMzEmUoog5Jo0LFi-13" style="edgeStyle=orthogonalEdgeStyle;rounded=0;orthogonalLoop=1;jettySize=auto;html=1;exitX=0;exitY=0.75;exitDx=0;exitDy=0;entryX=1;entryY=0.5;entryDx=0;entryDy=0;fontSize=16;" edge="1" parent="32OjlMzEmUoog5Jo0LFi-1" source="32OjlMzEmUoog5Jo0LFi-14" target="32OjlMzEmUoog5Jo0LFi-15">
          <mxGeometry relative="1" as="geometry" />
        </mxCell>
        <mxCell id="32OjlMzEmUoog5Jo0LFi-14" value="Tickets Collection" style="rounded=0;whiteSpace=wrap;html=1;fontSize=16;fillColor=#d5e8d4;strokeColor=#82b366;fontStyle=1" vertex="1" parent="32OjlMzEmUoog5Jo0LFi-1">
          <mxGeometry x="960" y="310" width="200" height="150" as="geometry" />
        </mxCell>
        <mxCell id="32OjlMzEmUoog5Jo0LFi-15" value="Ticket isn&#39;t reserved? Great!&amp;nbsp; Create a new order." style="rounded=0;whiteSpace=wrap;html=1;fontSize=12;" vertex="1" parent="32OjlMzEmUoog5Jo0LFi-1">
          <mxGeometry x="690" y="440" width="200" height="50" as="geometry" />
        </mxCell>
        <mxCell id="32OjlMzEmUoog5Jo0LFi-16" value="Wait for query..." style="text;html=1;strokeColor=none;fillColor=none;align=left;verticalAlign=middle;whiteSpace=wrap;rounded=0;fontSize=13;fontStyle=2" vertex="1" parent="32OjlMzEmUoog5Jo0LFi-1">
          <mxGeometry x="790" y="376" width="110" height="40" as="geometry" />
        </mxCell>
        <mxCell id="32OjlMzEmUoog5Jo0LFi-17" value="" style="shape=curlyBracket;whiteSpace=wrap;html=1;rounded=1;fontSize=13;align=left;" vertex="1" parent="32OjlMzEmUoog5Jo0LFi-1">
          <mxGeometry x="657" y="350" width="30" height="90" as="geometry" />
        </mxCell>
        <mxCell id="32OjlMzEmUoog5Jo0LFi-18" value="During this wait, Node will process other requests" style="rounded=0;whiteSpace=wrap;html=1;fontSize=15;align=center;fillColor=#f8cecc;strokeColor=#b85450;fontStyle=1" vertex="1" parent="32OjlMzEmUoog5Jo0LFi-1">
          <mxGeometry x="490" y="366" width="167" height="60" as="geometry" />
        </mxCell>
      </root>
    </mxGraphModel>
  </diagram>
  <diagram name="07 - wait" id="1llLemQWSa_At6IAREHs">
    <mxGraphModel dx="770" dy="379" grid="1" gridSize="10" guides="1" tooltips="1" connect="1" arrows="1" fold="1" page="1" pageScale="1" pageWidth="1920" pageHeight="1200" math="0" shadow="0">
      <root>
        <mxCell id="cx-zm6Oqs-1qRs_huKF1-0" />
        <mxCell id="cx-zm6Oqs-1qRs_huKF1-1" parent="cx-zm6Oqs-1qRs_huKF1-0" />
        <mxCell id="cx-zm6Oqs-1qRs_huKF1-2" value="Orders Service" style="rounded=0;whiteSpace=wrap;html=1;fontSize=19;fillColor=#f5f5f5;strokeColor=#666666;fontColor=#333333;fontStyle=1" vertex="1" parent="cx-zm6Oqs-1qRs_huKF1-1">
          <mxGeometry x="680" y="200" width="220" height="25" as="geometry" />
        </mxCell>
        <mxCell id="cx-zm6Oqs-1qRs_huKF1-3" value="" style="rounded=0;whiteSpace=wrap;html=1;fontSize=22;fillColor=#f5f5f5;strokeColor=#666666;fontColor=#333333;fontStyle=1" vertex="1" parent="cx-zm6Oqs-1qRs_huKF1-1">
          <mxGeometry x="680" y="225" width="220" height="355" as="geometry" />
        </mxCell>
        <mxCell id="cx-zm6Oqs-1qRs_huKF1-4" style="edgeStyle=orthogonalEdgeStyle;rounded=0;orthogonalLoop=1;jettySize=auto;html=1;exitX=1;exitY=0.5;exitDx=0;exitDy=0;fontSize=12;" edge="1" parent="cx-zm6Oqs-1qRs_huKF1-1" source="cx-zm6Oqs-1qRs_huKF1-5" target="cx-zm6Oqs-1qRs_huKF1-9">
          <mxGeometry relative="1" as="geometry" />
        </mxCell>
        <mxCell id="cx-zm6Oqs-1qRs_huKF1-5" value="Request to create an order for ticket XYZ" style="rounded=0;whiteSpace=wrap;html=1;fontSize=12;fillColor=#dae8fc;strokeColor=#6c8ebf;" vertex="1" parent="cx-zm6Oqs-1qRs_huKF1-1">
          <mxGeometry x="490" y="240" width="160" height="40" as="geometry" />
        </mxCell>
        <mxCell id="cx-zm6Oqs-1qRs_huKF1-6" value="Mongo DB" style="rounded=0;whiteSpace=wrap;html=1;fontSize=19;fillColor=#f5f5f5;strokeColor=#666666;fontColor=#333333;fontStyle=1" vertex="1" parent="cx-zm6Oqs-1qRs_huKF1-1">
          <mxGeometry x="950" y="200" width="220" height="25" as="geometry" />
        </mxCell>
        <mxCell id="cx-zm6Oqs-1qRs_huKF1-7" value="" style="rounded=0;whiteSpace=wrap;html=1;fontSize=22;fillColor=#f5f5f5;strokeColor=#666666;fontColor=#333333;fontStyle=1" vertex="1" parent="cx-zm6Oqs-1qRs_huKF1-1">
          <mxGeometry x="950" y="225" width="220" height="355" as="geometry" />
        </mxCell>
        <mxCell id="cx-zm6Oqs-1qRs_huKF1-8" style="edgeStyle=orthogonalEdgeStyle;rounded=0;orthogonalLoop=1;jettySize=auto;html=1;exitX=0.5;exitY=1;exitDx=0;exitDy=0;fontSize=12;" edge="1" parent="cx-zm6Oqs-1qRs_huKF1-1" source="cx-zm6Oqs-1qRs_huKF1-9" target="cx-zm6Oqs-1qRs_huKF1-12">
          <mxGeometry relative="1" as="geometry" />
        </mxCell>
        <mxCell id="cx-zm6Oqs-1qRs_huKF1-9" value="Is the ticket reserved?" style="rounded=0;whiteSpace=wrap;html=1;fontSize=12;" vertex="1" parent="cx-zm6Oqs-1qRs_huKF1-1">
          <mxGeometry x="690" y="240" width="200" height="40" as="geometry" />
        </mxCell>
        <mxCell id="cx-zm6Oqs-1qRs_huKF1-10" style="edgeStyle=orthogonalEdgeStyle;rounded=0;orthogonalLoop=1;jettySize=auto;html=1;exitX=1;exitY=0.5;exitDx=0;exitDy=0;entryX=0.003;entryY=0.06;entryDx=0;entryDy=0;fontSize=16;entryPerimeter=0;" edge="1" parent="cx-zm6Oqs-1qRs_huKF1-1" source="cx-zm6Oqs-1qRs_huKF1-12" target="cx-zm6Oqs-1qRs_huKF1-14">
          <mxGeometry relative="1" as="geometry" />
        </mxCell>
        <mxCell id="cx-zm6Oqs-1qRs_huKF1-19" style="edgeStyle=orthogonalEdgeStyle;rounded=0;orthogonalLoop=1;jettySize=auto;html=1;exitX=0.25;exitY=1;exitDx=0;exitDy=0;entryX=0.099;entryY=-0.017;entryDx=0;entryDy=0;fontSize=15;entryPerimeter=0;" edge="1" parent="cx-zm6Oqs-1qRs_huKF1-1" source="cx-zm6Oqs-1qRs_huKF1-12" target="cx-zm6Oqs-1qRs_huKF1-15">
          <mxGeometry relative="1" as="geometry">
            <Array as="points">
              <mxPoint x="710" y="350" />
            </Array>
          </mxGeometry>
        </mxCell>
        <mxCell id="cx-zm6Oqs-1qRs_huKF1-12" value="Check to see if there is an order that references ticket XYZ and has a status that isn&#39;t &#39;cancelled&#39;" style="rounded=0;whiteSpace=wrap;html=1;fontSize=12;" vertex="1" parent="cx-zm6Oqs-1qRs_huKF1-1">
          <mxGeometry x="690" y="300" width="200" height="50" as="geometry" />
        </mxCell>
        <mxCell id="cx-zm6Oqs-1qRs_huKF1-13" style="edgeStyle=orthogonalEdgeStyle;rounded=0;orthogonalLoop=1;jettySize=auto;html=1;exitX=0;exitY=0.75;exitDx=0;exitDy=0;entryX=1;entryY=0.5;entryDx=0;entryDy=0;fontSize=16;" edge="1" parent="cx-zm6Oqs-1qRs_huKF1-1" source="cx-zm6Oqs-1qRs_huKF1-14" target="cx-zm6Oqs-1qRs_huKF1-15">
          <mxGeometry relative="1" as="geometry">
            <Array as="points">
              <mxPoint x="960" y="535" />
            </Array>
          </mxGeometry>
        </mxCell>
        <mxCell id="cx-zm6Oqs-1qRs_huKF1-14" value="Tickets Collection" style="rounded=0;whiteSpace=wrap;html=1;fontSize=16;fillColor=#d5e8d4;strokeColor=#82b366;fontStyle=1" vertex="1" parent="cx-zm6Oqs-1qRs_huKF1-1">
          <mxGeometry x="960" y="310" width="200" height="250" as="geometry" />
        </mxCell>
        <mxCell id="cx-zm6Oqs-1qRs_huKF1-15" value="Ticket isn&#39;t reserved? Great!&amp;nbsp; Create a new order." style="rounded=0;whiteSpace=wrap;html=1;fontSize=12;" vertex="1" parent="cx-zm6Oqs-1qRs_huKF1-1">
          <mxGeometry x="690" y="510" width="200" height="50" as="geometry" />
        </mxCell>
        <mxCell id="cx-zm6Oqs-1qRs_huKF1-22" style="edgeStyle=orthogonalEdgeStyle;rounded=0;orthogonalLoop=1;jettySize=auto;html=1;exitX=1;exitY=0.5;exitDx=0;exitDy=0;fontSize=15;" edge="1" parent="cx-zm6Oqs-1qRs_huKF1-1" source="cx-zm6Oqs-1qRs_huKF1-20" target="cx-zm6Oqs-1qRs_huKF1-21">
          <mxGeometry relative="1" as="geometry" />
        </mxCell>
        <mxCell id="cx-zm6Oqs-1qRs_huKF1-20" value="Request to create an order for ticket XYZ" style="rounded=0;whiteSpace=wrap;html=1;fontSize=12;fillColor=#dae8fc;strokeColor=#6c8ebf;" vertex="1" parent="cx-zm6Oqs-1qRs_huKF1-1">
          <mxGeometry x="490" y="370" width="160" height="40" as="geometry" />
        </mxCell>
        <mxCell id="cx-zm6Oqs-1qRs_huKF1-23" style="edgeStyle=orthogonalEdgeStyle;rounded=0;orthogonalLoop=1;jettySize=auto;html=1;exitX=1;exitY=0.5;exitDx=0;exitDy=0;entryX=0.01;entryY=0.364;entryDx=0;entryDy=0;entryPerimeter=0;fontSize=15;" edge="1" parent="cx-zm6Oqs-1qRs_huKF1-1" source="cx-zm6Oqs-1qRs_huKF1-21" target="cx-zm6Oqs-1qRs_huKF1-14">
          <mxGeometry relative="1" as="geometry" />
        </mxCell>
        <mxCell id="cx-zm6Oqs-1qRs_huKF1-29" style="edgeStyle=orthogonalEdgeStyle;rounded=0;orthogonalLoop=1;jettySize=auto;html=1;exitX=0.5;exitY=1;exitDx=0;exitDy=0;fontSize=15;" edge="1" parent="cx-zm6Oqs-1qRs_huKF1-1" source="cx-zm6Oqs-1qRs_huKF1-21" target="cx-zm6Oqs-1qRs_huKF1-25">
          <mxGeometry relative="1" as="geometry" />
        </mxCell>
        <mxCell id="cx-zm6Oqs-1qRs_huKF1-21" value="Is the ticket reserved?" style="rounded=0;whiteSpace=wrap;html=1;fontSize=12;" vertex="1" parent="cx-zm6Oqs-1qRs_huKF1-1">
          <mxGeometry x="740" y="370" width="140" height="40" as="geometry" />
        </mxCell>
        <mxCell id="cx-zm6Oqs-1qRs_huKF1-28" style="edgeStyle=orthogonalEdgeStyle;rounded=0;orthogonalLoop=1;jettySize=auto;html=1;exitX=1;exitY=0.5;exitDx=0;exitDy=0;fontSize=15;entryX=0.003;entryY=0.622;entryDx=0;entryDy=0;entryPerimeter=0;" edge="1" parent="cx-zm6Oqs-1qRs_huKF1-1" source="cx-zm6Oqs-1qRs_huKF1-25" target="cx-zm6Oqs-1qRs_huKF1-14">
          <mxGeometry relative="1" as="geometry">
            <mxPoint x="940" y="465" as="targetPoint" />
          </mxGeometry>
        </mxCell>
        <mxCell id="cx-zm6Oqs-1qRs_huKF1-25" value="Ticket isn&#39;t reserved? Great!&amp;nbsp; Create a new order." style="rounded=0;whiteSpace=wrap;html=1;fontSize=12;" vertex="1" parent="cx-zm6Oqs-1qRs_huKF1-1">
          <mxGeometry x="740" y="440" width="140" height="50" as="geometry" />
        </mxCell>
        <mxCell id="cx-zm6Oqs-1qRs_huKF1-30" value="Wait..." style="text;html=1;strokeColor=none;fillColor=none;align=left;verticalAlign=middle;whiteSpace=wrap;rounded=0;fontSize=15;fontStyle=2" vertex="1" parent="cx-zm6Oqs-1qRs_huKF1-1">
          <mxGeometry x="813" y="414" width="100" height="20" as="geometry" />
        </mxCell>
      </root>
    </mxGraphModel>
  </diagram>
  <diagram id="Xx5ap4HsDcu5cxLGE85O" name="09 - listeners">
    <mxGraphModel dx="834" dy="411" grid="1" gridSize="10" guides="1" tooltips="1" connect="1" arrows="1" fold="1" page="1" pageScale="1" pageWidth="1920" pageHeight="1200" math="0" shadow="0">
      <root>
        <mxCell id="0AzkZ_DEf5Xeuaw59CS6-0" />
        <mxCell id="0AzkZ_DEf5Xeuaw59CS6-1" parent="0AzkZ_DEf5Xeuaw59CS6-0" />
        <mxCell id="7LceukgZTSw0FFcxnIN4-0" value="Orders Service" style="rounded=0;whiteSpace=wrap;html=1;fontSize=19;fillColor=#f5f5f5;strokeColor=#666666;fontColor=#333333;fontStyle=1" vertex="1" parent="0AzkZ_DEf5Xeuaw59CS6-1">
          <mxGeometry x="680" y="200" width="220" height="25" as="geometry" />
        </mxCell>
        <mxCell id="7LceukgZTSw0FFcxnIN4-1" value="" style="rounded=0;whiteSpace=wrap;html=1;fontSize=22;fillColor=#f5f5f5;strokeColor=#666666;fontColor=#333333;fontStyle=1" vertex="1" parent="0AzkZ_DEf5Xeuaw59CS6-1">
          <mxGeometry x="680" y="225" width="220" height="565" as="geometry" />
        </mxCell>
        <mxCell id="7LceukgZTSw0FFcxnIN4-2" style="edgeStyle=orthogonalEdgeStyle;rounded=0;orthogonalLoop=1;jettySize=auto;html=1;exitX=1;exitY=0.5;exitDx=0;exitDy=0;fontSize=12;" edge="1" parent="0AzkZ_DEf5Xeuaw59CS6-1" source="7LceukgZTSw0FFcxnIN4-3" target="7LceukgZTSw0FFcxnIN4-7">
          <mxGeometry relative="1" as="geometry" />
        </mxCell>
        <mxCell id="7LceukgZTSw0FFcxnIN4-3" value="Request to create an order for ticket XYZ" style="rounded=0;whiteSpace=wrap;html=1;fontSize=12;fillColor=#dae8fc;strokeColor=#6c8ebf;" vertex="1" parent="0AzkZ_DEf5Xeuaw59CS6-1">
          <mxGeometry x="490" y="240" width="160" height="40" as="geometry" />
        </mxCell>
        <mxCell id="7LceukgZTSw0FFcxnIN4-6" style="edgeStyle=orthogonalEdgeStyle;rounded=0;orthogonalLoop=1;jettySize=auto;html=1;exitX=0.5;exitY=1;exitDx=0;exitDy=0;fontSize=12;" edge="1" parent="0AzkZ_DEf5Xeuaw59CS6-1" source="7LceukgZTSw0FFcxnIN4-7" target="7LceukgZTSw0FFcxnIN4-10">
          <mxGeometry relative="1" as="geometry" />
        </mxCell>
        <mxCell id="7LceukgZTSw0FFcxnIN4-7" value="Is the ticket reserved?" style="rounded=0;whiteSpace=wrap;html=1;fontSize=12;" vertex="1" parent="0AzkZ_DEf5Xeuaw59CS6-1">
          <mxGeometry x="690" y="240" width="200" height="40" as="geometry" />
        </mxCell>
        <mxCell id="7LceukgZTSw0FFcxnIN4-9" style="edgeStyle=orthogonalEdgeStyle;rounded=0;orthogonalLoop=1;jettySize=auto;html=1;exitX=0.5;exitY=1;exitDx=0;exitDy=0;fontSize=16;" edge="1" parent="0AzkZ_DEf5Xeuaw59CS6-1" source="7LceukgZTSw0FFcxnIN4-10" target="7LceukgZTSw0FFcxnIN4-13">
          <mxGeometry relative="1" as="geometry" />
        </mxCell>
        <mxCell id="7LceukgZTSw0FFcxnIN4-10" value="Check to see if there is an order that references ticket XYZ and has a status that isn&#39;t &#39;cancelled&#39;" style="rounded=0;whiteSpace=wrap;html=1;fontSize=12;" vertex="1" parent="0AzkZ_DEf5Xeuaw59CS6-1">
          <mxGeometry x="690" y="300" width="200" height="50" as="geometry" />
        </mxCell>
        <mxCell id="7LceukgZTSw0FFcxnIN4-16" style="edgeStyle=orthogonalEdgeStyle;rounded=0;orthogonalLoop=1;jettySize=auto;html=1;exitX=0.5;exitY=1;exitDx=0;exitDy=0;fontSize=15;" edge="1" parent="0AzkZ_DEf5Xeuaw59CS6-1" source="7LceukgZTSw0FFcxnIN4-13" target="7LceukgZTSw0FFcxnIN4-15">
          <mxGeometry relative="1" as="geometry" />
        </mxCell>
        <mxCell id="7LceukgZTSw0FFcxnIN4-13" value="Ticket isn&#39;t reserved? Great!&amp;nbsp; Create a new &lt;b&gt;order with the status &#39;Created&#39;.&lt;/b&gt;" style="rounded=0;whiteSpace=wrap;html=1;fontSize=12;" vertex="1" parent="0AzkZ_DEf5Xeuaw59CS6-1">
          <mxGeometry x="690" y="370" width="200" height="50" as="geometry" />
        </mxCell>
        <mxCell id="7LceukgZTSw0FFcxnIN4-15" value="Emit an OrderCreated event" style="rounded=0;whiteSpace=wrap;html=1;fontSize=12;" vertex="1" parent="0AzkZ_DEf5Xeuaw59CS6-1">
          <mxGeometry x="690" y="440" width="200" height="50" as="geometry" />
        </mxCell>
        <mxCell id="7LceukgZTSw0FFcxnIN4-17" value="Tickets Service" style="rounded=0;whiteSpace=wrap;html=1;fontSize=19;fillColor=#f5f5f5;strokeColor=#666666;fontColor=#333333;fontStyle=1" vertex="1" parent="0AzkZ_DEf5Xeuaw59CS6-1">
          <mxGeometry x="940" y="200" width="220" height="25" as="geometry" />
        </mxCell>
        <mxCell id="7LceukgZTSw0FFcxnIN4-18" value="" style="rounded=0;whiteSpace=wrap;html=1;fontSize=22;fillColor=#f5f5f5;strokeColor=#666666;fontColor=#333333;fontStyle=1" vertex="1" parent="0AzkZ_DEf5Xeuaw59CS6-1">
          <mxGeometry x="940" y="225" width="220" height="565" as="geometry" />
        </mxCell>
        <mxCell id="7LceukgZTSw0FFcxnIN4-22" style="edgeStyle=orthogonalEdgeStyle;rounded=0;orthogonalLoop=1;jettySize=auto;html=1;exitX=0.5;exitY=1;exitDx=0;exitDy=0;fontSize=15;" edge="1" parent="0AzkZ_DEf5Xeuaw59CS6-1" source="7LceukgZTSw0FFcxnIN4-19" target="7LceukgZTSw0FFcxnIN4-21">
          <mxGeometry relative="1" as="geometry" />
        </mxCell>
        <mxCell id="7LceukgZTSw0FFcxnIN4-19" value="Look up the referenced Ticket, see if it is reserved" style="rounded=0;whiteSpace=wrap;html=1;fontSize=12;" vertex="1" parent="0AzkZ_DEf5Xeuaw59CS6-1">
          <mxGeometry x="950" y="440" width="200" height="50" as="geometry" />
        </mxCell>
        <mxCell id="7LceukgZTSw0FFcxnIN4-20" style="edgeStyle=orthogonalEdgeStyle;rounded=0;orthogonalLoop=1;jettySize=auto;html=1;exitX=1;exitY=0.5;exitDx=0;exitDy=0;fontSize=15;" edge="1" parent="0AzkZ_DEf5Xeuaw59CS6-1" source="7LceukgZTSw0FFcxnIN4-15" target="7LceukgZTSw0FFcxnIN4-19">
          <mxGeometry relative="1" as="geometry" />
        </mxCell>
        <mxCell id="7LceukgZTSw0FFcxnIN4-24" style="edgeStyle=orthogonalEdgeStyle;rounded=0;orthogonalLoop=1;jettySize=auto;html=1;exitX=0.5;exitY=1;exitDx=0;exitDy=0;fontSize=15;" edge="1" parent="0AzkZ_DEf5Xeuaw59CS6-1" source="7LceukgZTSw0FFcxnIN4-21" target="7LceukgZTSw0FFcxnIN4-23">
          <mxGeometry relative="1" as="geometry" />
        </mxCell>
        <mxCell id="7LceukgZTSw0FFcxnIN4-21" value="If it is not&amp;nbsp;reserved, save the orderId with the ticket" style="rounded=0;whiteSpace=wrap;html=1;fontSize=12;" vertex="1" parent="0AzkZ_DEf5Xeuaw59CS6-1">
          <mxGeometry x="950" y="510" width="200" height="50" as="geometry" />
        </mxCell>
        <mxCell id="7LceukgZTSw0FFcxnIN4-27" style="edgeStyle=orthogonalEdgeStyle;rounded=0;orthogonalLoop=1;jettySize=auto;html=1;exitX=0;exitY=0.5;exitDx=0;exitDy=0;fontSize=15;" edge="1" parent="0AzkZ_DEf5Xeuaw59CS6-1" source="7LceukgZTSw0FFcxnIN4-23" target="7LceukgZTSw0FFcxnIN4-26">
          <mxGeometry relative="1" as="geometry" />
        </mxCell>
        <mxCell id="7LceukgZTSw0FFcxnIN4-23" value="Emit &lt;b&gt;TicketUpdated &lt;/b&gt;event" style="rounded=0;whiteSpace=wrap;html=1;fontSize=12;" vertex="1" parent="0AzkZ_DEf5Xeuaw59CS6-1">
          <mxGeometry x="950" y="580" width="200" height="50" as="geometry" />
        </mxCell>
        <mxCell id="7LceukgZTSw0FFcxnIN4-29" style="edgeStyle=orthogonalEdgeStyle;rounded=0;orthogonalLoop=1;jettySize=auto;html=1;exitX=0.5;exitY=1;exitDx=0;exitDy=0;fontSize=15;" edge="1" parent="0AzkZ_DEf5Xeuaw59CS6-1" source="7LceukgZTSw0FFcxnIN4-26" target="7LceukgZTSw0FFcxnIN4-28">
          <mxGeometry relative="1" as="geometry" />
        </mxCell>
        <mxCell id="7LceukgZTSw0FFcxnIN4-26" value="Find ticket that was updated in DB." style="rounded=0;whiteSpace=wrap;html=1;fontSize=12;" vertex="1" parent="0AzkZ_DEf5Xeuaw59CS6-1">
          <mxGeometry x="690" y="580" width="200" height="50" as="geometry" />
        </mxCell>
        <mxCell id="7LceukgZTSw0FFcxnIN4-31" style="edgeStyle=orthogonalEdgeStyle;rounded=0;orthogonalLoop=1;jettySize=auto;html=1;exitX=0.5;exitY=1;exitDx=0;exitDy=0;fontSize=15;" edge="1" parent="0AzkZ_DEf5Xeuaw59CS6-1" source="7LceukgZTSw0FFcxnIN4-28" target="7LceukgZTSw0FFcxnIN4-30">
          <mxGeometry relative="1" as="geometry" />
        </mxCell>
        <mxCell id="7LceukgZTSw0FFcxnIN4-28" value="Update the ticket with info from event" style="rounded=0;whiteSpace=wrap;html=1;fontSize=12;" vertex="1" parent="0AzkZ_DEf5Xeuaw59CS6-1">
          <mxGeometry x="690" y="650" width="200" height="50" as="geometry" />
        </mxCell>
        <mxCell id="7LceukgZTSw0FFcxnIN4-30" value="&lt;i&gt;Find any other orders that reference this ticket and are in a &#39;Created&#39; state.&amp;nbsp; Update their status to &#39;Cancelled&#39;&lt;/i&gt;" style="rounded=0;whiteSpace=wrap;html=1;fontSize=12;" vertex="1" parent="0AzkZ_DEf5Xeuaw59CS6-1">
          <mxGeometry x="690" y="720" width="200" height="60" as="geometry" />
        </mxCell>
      </root>
    </mxGraphModel>
  </diagram>
</mxfile>
